<?xml version="1.0" encoding="utf-8" ?>
<svg xmlns="http://www.w3.org/2000/svg" xmlns:xlink="http://www.w3.org/1999/xlink" width="1024" height="1024">
	<path fill="white" transform="scale(2 2)" d="M184.226 261.936C141.149 275.102 94.2964 266.165 108.702 211.165C126.093 144.77 177.291 90.0426 248.708 86.0227C307.087 85.8051 350.639 109.823 381.827 160.991C392.934 179.214 410.344 220.792 405.144 241.664C397.118 273.874 351.149 267.76 327.585 261.936C350.106 294.194 326.136 301.023 297.452 297.915L297.474 298.006C298.712 303.039 298.78 308.471 299.571 313.614C302.004 329.454 306.381 344.938 312.641 359.686C321.077 379.562 327.342 396.532 309.325 414.519C296.436 427.388 281.435 425.218 264.875 425.185L241.044 425.197C219.066 425.204 199.527 421.829 192.796 396.245C187.501 376.121 200.192 359.107 206.03 340.822C210.587 326.55 213.041 312.738 214.528 297.915C203.002 300.216 179.057 301.426 175.723 285.89C173.78 276.835 179.56 269.051 184.226 261.936ZM392.902 214.197C380.276 228.103 363.545 245.241 342.903 234.926C334.851 230.903 319.452 214.173 316.656 205.56C313.764 196.648 315.944 186.747 321.903 179.632C334.743 164.3 349.734 151.027 370.723 161.975L370.723 161.975L370.723 161.975C358.012 140.631 332.25 118.604 310.102 108.461C239.238 76.0068 162.421 112.005 131.291 180.361C153.695 174.638 174.722 189.512 172.036 213.562C168.86 242 132.906 250.174 115.796 228.254C115.415 237.298 118.232 245.306 126.165 250.543C144.382 264.326 179.236 252.757 199.145 247.459C241.255 236.252 283.753 239.876 325.42 250.546C343.96 255.293 380.136 264.958 393.129 243.924C398.64 235 395.125 223.612 392.902 214.197ZM354.551 168.348C345.624 169.236 342.356 173.677 336.41 179.7C329.78 186.415 321.364 193.927 327.291 204.701C332.537 214.234 345.543 228.664 358.067 227.272L358.312 227.243C365.884 226.28 369.832 221.741 375.284 216.967C382.562 210.593 391.46 202.118 384.945 191.278C379.022 181.423 367.376 167.684 354.551 168.348ZM140.498 188.843C111.989 192.312 114.884 231.318 142.676 230.734C171.674 226.926 164.689 186.525 140.498 188.843ZM246.669 250.543C238.75 251.067 229.844 250.995 222.318 253.562C228.323 288.086 224.778 321.107 212.418 353.834C208.615 363.904 202.476 373.662 201.879 384.647C201.135 398.316 210.461 411.592 224.001 414.451C229.344 415.579 234.923 415.021 240.349 415.01L264.875 415.005L277.479 415.016C287.213 415.005 295.175 414.352 302.395 407.116C315.615 393.868 310.09 380.523 304.101 366.098C289.033 329.8 284.75 292.626 289.095 253.562C274.979 251.553 260.963 249.987 246.669 250.543ZM211.964 255.166C207.983 255.624 203.866 256.52 200.05 257.758C195.093 264.096 177.978 282.526 190.289 287.603C197.958 289.849 206.952 289.25 214.528 286.885C214.775 282.898 213.578 257.368 211.964 255.166ZM299.417 255.166C297.948 265.617 297.131 276.326 297.452 286.885C305.228 288.783 315.244 290.548 322.798 286.885C332.741 279.896 316.999 265.695 311.706 257.758C307.629 256.75 303.57 255.813 299.417 255.166Z"/>
	<path fill="white" transform="scale(2 2)" d="M245.811 205.456C227.499 205.854 203.574 182.186 203.09 165.19C202.674 150.604 228.469 125.918 243.222 125.513C255.495 124.44 262.487 132.112 270.452 139.811C291.133 159.801 291.203 171.186 269.598 191.814C261.868 199.194 256.993 204.308 245.811 205.456ZM243.222 135.577C233.143 137.008 221.415 150.144 215.707 157.66C207.148 168.932 225.901 186.347 233.867 192.221C237.455 194.867 241.469 195.477 245.811 195.192C256.765 192.958 283.038 171.336 272.83 156.924C267.708 149.693 253.674 134.69 243.222 135.577Z"/>
	<path fill="white" transform="scale(2 2)" d="M235.775 391.558C224.229 393.731 224.307 371.454 231.489 361.822C239.259 351.403 244.215 348.705 245.041 334.455C245.287 330.202 244.166 325.247 248.708 323.026C256.439 322.138 255.707 329.091 255.329 334.469C253.5 360.497 239.743 361.886 236.51 373.709C234.579 380.771 243.631 387.11 235.775 391.558Z"/>
</svg>
